<svg xmlns="http://www.w3.org/2000/svg" xmlns:xlink="http://www.w3.org/1999/xlink" xmlns:lucid="lucid" width="360" height="80"><g transform="translate(0 0)" lucid:page-tab-id="FFlZ~V.9lILu"><path d="M0 0h360v80H0z"/><path d="M0 0h360v80H0z" stroke="#fff" stroke-width="5"/><path d="M0 28a8 8 0 0 1 8-8h344a8 8 0 0 1 8 8v32a8 8 0 0 1-8 8H8a8 8 0 0 1-8-8z" fill="none"/><use xlink:href="#a" transform="matrix(1,0,0,1,2.842170943040401e-14,20) translate(90.85215928819457 35.33582899305551)"/><use xlink:href="#b" transform="matrix(1,0,0,1,2.842170943040401e-14,20) translate(192.73540581597223 35.33582899305551)"/><defs><path fill="#fff" d="M305-1169c27 366 9 780 14 1169H99v-1349h347c49 189 108 371 150 564 12 56 15 107 23 166 33-270 117-487 176-730h335V0H908c5-390-13-801 16-1169-52 285-130 541-199 809H507c-70-267-148-525-202-809" id="c"/><path fill="#fff" d="M836-709c204 20 350 118 350 324C1186-112 992 0 719 0H137v-1349h525c258 3 443 87 443 339 0 176-107 269-269 301zM643-811c107 0 165-53 165-159 0-113-61-160-167-160H432v319h211zm46 592c128-1 201-59 200-191-1-128-80-183-207-183H432v374h257" id="d"/><path fill="#fff" d="M615-1370c385 0 542 273 542 691 0 230-47 404-140 522S790 20 615 20C231 20 72-262 72-679c0-419 158-691 543-691zM797-330c77-133 78-564 0-695-44-73-101-113-182-113s-139 40-183 114c-79 133-78 560 0 694 45 77 102 118 183 118s138-41 182-118" id="e"/><g id="a"><use transform="matrix(0.02072482638888886,0,0,0.02072482638888886,0,0)" xlink:href="#c"/><use transform="matrix(0.02072482638888886,0,0,0.02072482638888886,25.47081163194441,0)" xlink:href="#d"/><use transform="matrix(0.02072482638888886,0,0,0.02072482638888886,50.94162326388882,0)" xlink:href="#e"/></g><path fill="#fff" d="M796 0v-574H433V0H138v-1349h295v531h363v-531h295V0H796" id="f"/><path fill="#fff" d="M471 20c-247 0-336-169-336-415v-687h281v607c4 148 31 285 172 285 152 0 207-150 207-312v-580h281c4 359-9 736 8 1082H816c-7-63-11-146-12-215h-5C736-76 644 20 471 20" id="g"/><path fill="#fff" d="M429-1484c1 190-1 388 0 572 54-116 155-191 317-191 300 0 386 257 386 563 0 241-73 429-226 518-49 28-106 42-169 42-162 0-251-81-306-196h-4c-1 59-5 127-15 176H140c4-67 9-153 8-236v-1248h281zm66 648c-93 114-92 466 1 585 35 45 77 79 142 79 64 0 112-31 148-92 69-115 68-440-2-561-39-68-131-111-221-70-25 11-46 32-68 59" id="h"/><g id="b"><use transform="matrix(0.02072482638888886,0,0,0.02072482638888886,0,0)" xlink:href="#f"/><use transform="matrix(0.02072482638888886,0,0,0.02072482638888886,25.47081163194441,0)" xlink:href="#g"/><use transform="matrix(0.02072482638888886,0,0,0.02072482638888886,50.94162326388882,0)" xlink:href="#h"/></g></defs></g></svg>