<svg xmlns="http://www.w3.org/2000/svg" xmlns:xlink="http://www.w3.org/1999/xlink" xmlns:lucid="lucid" width="360" height="80"><g transform="translate(0 0)" lucid:page-tab-id="FFlZ~V.9lILu"><path d="M0 0h360v80H0z"/><path d="M0 0h360v80H0z" stroke="#fff" stroke-width="5"/><path d="M0 28a8 8 0 0 1 8-8h344a8 8 0 0 1 8 8v32a8 8 0 0 1-8 8H8a8 8 0 0 1-8-8z" fill="none"/><use xlink:href="#a" transform="matrix(1,0,0,1,2.842170943040401e-14,20) translate(39.91053602430574 35.33582899305551)"/><use xlink:href="#b" transform="matrix(1,0,0,1,2.842170943040401e-14,20) translate(141.79378255208337 35.33582899305551)"/><defs><path fill="#fff" d="M305-1169c27 366 9 780 14 1169H99v-1349h347c49 189 108 371 150 564 12 56 15 107 23 166 33-270 117-487 176-730h335V0H908c5-390-13-801 16-1169-52 285-130 541-199 809H507c-70-267-148-525-202-809" id="c"/><path fill="#fff" d="M836-709c204 20 350 118 350 324C1186-112 992 0 719 0H137v-1349h525c258 3 443 87 443 339 0 176-107 269-269 301zM643-811c107 0 165-53 165-159 0-113-61-160-167-160H432v319h211zm46 592c128-1 201-59 200-191-1-128-80-183-207-183H432v374h257" id="d"/><path fill="#fff" d="M615-1370c385 0 542 273 542 691 0 230-47 404-140 522S790 20 615 20C231 20 72-262 72-679c0-419 158-691 543-691zM797-330c77-133 78-564 0-695-44-73-101-113-182-113s-139 40-183 114c-79 133-78 560 0 694 45 77 102 118 183 118s138-41 182-118" id="e"/><g id="a"><use transform="matrix(0.02072482638888886,0,0,0.02072482638888886,0,0)" xlink:href="#c"/><use transform="matrix(0.02072482638888886,0,0,0.02072482638888886,25.47081163194441,0)" xlink:href="#d"/><use transform="matrix(0.02072482638888886,0,0,0.02072482638888886,50.94162326388882,0)" xlink:href="#e"/></g><path fill="#fff" d="M872-915c-35-112-84-223-220-223-91 0-156 41-204 116-89 137-87 550 2 688 51 79 116 122 209 122 150 0 197-126 240-244l273 52C1094-168 961 20 656 20 239 20 80-262 80-681c0-418 154-689 568-689 289 0 425 167 496 389" id="f"/><path fill="#fff" d="M616-1102c361 0 521 202 521 560 0 354-171 562-527 562C259 20 92-192 92-542c0-351 169-560 524-560zm-9 930c200-2 236-165 236-370 0-199-27-367-223-367-195 0-233 146-233 367 0 129 18 223 55 282s92 88 165 88" id="g"/><path fill="#fff" d="M934-1102c199 0 220 177 220 381V0H926c-2-260 10-533-4-785-4-72-14-138-83-138-34 0-61 27-81 81s-29 134-29 241V0H501c-2-260 9-533-5-785-4-72-13-138-82-138-46 0-65 47-80 93-21 67-30 155-30 248V0H75c-3-360 6-732-6-1082h209c6 50 3 123 8 175 36-100 83-195 216-195 135 0 166 79 196 196 42-105 93-196 236-196" id="h"/><path fill="#fff" d="M427-171c3 195 2 397 2 596H148V-846c1-83-4-168-8-236h272c10 49 14 118 15 176h4c59-114 151-197 316-197 291 0 385 259 385 560 0 243-65 433-220 521-50 28-109 42-176 42-162-2-253-78-309-191zm69-661c-91 113-92 463-1 586 46 62 145 101 225 54 96-57 118-191 119-351 0-123-18-215-53-276-46-82-128-115-220-74-25 12-48 33-70 61" id="i"/><path fill="#fff" d="M471 20c-247 0-336-169-336-415v-687h281v607c4 148 31 285 172 285 152 0 207-150 207-312v-580h281c4 359-9 736 8 1082H816c-7-63-11-146-12-215h-5C736-76 644 20 471 20" id="j"/><path fill="#fff" d="M711 13c-250 0-386-99-385-349l2-556H161v-190h181l88-282h176v282h385v190H606v530c-10 130 45 186 174 184 91-2 176-11 255-27v186C933-1 833 13 711 13" id="k"/><path fill="#fff" d="M1113-274C1038-96 884 20 626 20c-352 0-526-209-526-566 0-358 185-556 530-556 358 0 496 251 499 615H395c5 180 68 319 245 319 102 0 186-45 208-129zM857-663c-6-177-128-307-315-247-94 30-141 121-145 247h460" id="l"/><g id="b"><use transform="matrix(0.02072482638888886,0,0,0.02072482638888886,0,0)" xlink:href="#f"/><use transform="matrix(0.02072482638888886,0,0,0.02072482638888886,25.47081163194441,0)" xlink:href="#g"/><use transform="matrix(0.02072482638888886,0,0,0.02072482638888886,50.94162326388882,0)" xlink:href="#h"/><use transform="matrix(0.02072482638888886,0,0,0.02072482638888886,76.41243489583323,0)" xlink:href="#i"/><use transform="matrix(0.02072482638888886,0,0,0.02072482638888886,101.88324652777764,0)" xlink:href="#j"/><use transform="matrix(0.02072482638888886,0,0,0.02072482638888886,127.35405815972207,0)" xlink:href="#k"/><use transform="matrix(0.02072482638888886,0,0,0.02072482638888886,152.82486979166646,0)" xlink:href="#l"/></g></defs></g></svg>